<?xml version="1.0" encoding="UTF-8" standalone="no"?>
<!DOCTYPE svg PUBLIC "-//W3C//DTD SVG 1.1//EN"
 "http://www.w3.org/Graphics/SVG/1.1/DTD/svg11.dtd">
<!-- Generated by graphviz version 9.0.0 (20230911.1827)
 -->
<!-- Pages: 1 -->
<svg width="586pt" height="332pt"
 viewBox="0.00 0.00 586.44 332.00" xmlns="http://www.w3.org/2000/svg" xmlns:xlink="http://www.w3.org/1999/xlink">
<g id="graph0" class="graph" transform="scale(1 1) rotate(0) translate(4 328)">
<polygon fill="white" stroke="none" points="-4,4 -4,-328 582.44,-328 582.44,4 -4,4"/>
<!-- [root] aws_instance.dev (expand) -->
<g id="node1" class="node">
<title>[root] aws_instance.dev (expand)</title>
<polygon fill="none" stroke="black" points="329.88,-180 215.63,-180 215.63,-144 329.88,-144 329.88,-180"/>
<text text-anchor="middle" x="272.75" y="-156.57" font-family="Times New Roman,serif" font-size="14.00">aws_instance.dev</text>
</g>
<!-- [root] data.aws_ami.amzn&#45;linux&#45;2023&#45;ami (expand) -->
<g id="node3" class="node">
<title>[root] data.aws_ami.amzn&#45;linux&#45;2023&#45;ami (expand)</title>
<polygon fill="none" stroke="black" points="368.25,-108 157.25,-108 157.25,-72 368.25,-72 368.25,-108"/>
<text text-anchor="middle" x="262.75" y="-84.58" font-family="Times New Roman,serif" font-size="14.00">data.aws_ami.amzn&#45;linux&#45;2023&#45;ami</text>
</g>
<!-- [root] aws_instance.dev (expand)&#45;&gt;[root] data.aws_ami.amzn&#45;linux&#45;2023&#45;ami (expand) -->
<g id="edge1" class="edge">
<title>[root] aws_instance.dev (expand)&#45;&gt;[root] data.aws_ami.amzn&#45;linux&#45;2023&#45;ami (expand)</title>
<path fill="none" stroke="black" d="M270.28,-143.7C269.23,-136.32 267.97,-127.52 266.79,-119.25"/>
<polygon fill="black" stroke="black" points="270.29,-119.01 265.41,-109.6 263.36,-120 270.29,-119.01"/>
</g>
<!-- [root] var.istest -->
<g id="node5" class="node">
<title>[root] var.istest</title>
<polygon fill="none" stroke="black" points="445.5,-108 386,-108 386,-72 451.5,-72 451.5,-102 445.5,-108"/>
<polyline fill="none" stroke="black" points="445.5,-108 445.5,-102"/>
<polyline fill="none" stroke="black" points="451.5,-102 445.5,-102"/>
<text text-anchor="middle" x="418.75" y="-84.58" font-family="Times New Roman,serif" font-size="14.00">var.istest</text>
</g>
<!-- [root] aws_instance.dev (expand)&#45;&gt;[root] var.istest -->
<g id="edge2" class="edge">
<title>[root] aws_instance.dev (expand)&#45;&gt;[root] var.istest</title>
<path fill="none" stroke="black" d="M309.22,-143.52C329.3,-133.89 354.36,-121.87 375.44,-111.77"/>
<polygon fill="black" stroke="black" points="376.87,-114.96 384.37,-107.48 373.84,-108.65 376.87,-114.96"/>
</g>
<!-- [root] aws_instance.prod (expand) -->
<g id="node2" class="node">
<title>[root] aws_instance.prod (expand)</title>
<polygon fill="none" stroke="black" points="469.25,-180 348.25,-180 348.25,-144 469.25,-144 469.25,-180"/>
<text text-anchor="middle" x="408.75" y="-156.57" font-family="Times New Roman,serif" font-size="14.00">aws_instance.prod</text>
</g>
<!-- [root] aws_instance.prod (expand)&#45;&gt;[root] data.aws_ami.amzn&#45;linux&#45;2023&#45;ami (expand) -->
<g id="edge3" class="edge">
<title>[root] aws_instance.prod (expand)&#45;&gt;[root] data.aws_ami.amzn&#45;linux&#45;2023&#45;ami (expand)</title>
<path fill="none" stroke="black" d="M372.29,-143.52C353.23,-134.38 329.69,-123.09 309.32,-113.33"/>
<polygon fill="black" stroke="black" points="310.9,-110.2 300.37,-109.04 307.87,-116.52 310.9,-110.2"/>
</g>
<!-- [root] aws_instance.prod (expand)&#45;&gt;[root] var.istest -->
<g id="edge4" class="edge">
<title>[root] aws_instance.prod (expand)&#45;&gt;[root] var.istest</title>
<path fill="none" stroke="black" d="M411.22,-143.7C412.28,-136.32 413.53,-127.52 414.71,-119.25"/>
<polygon fill="black" stroke="black" points="418.14,-120 416.09,-109.6 411.21,-119.01 418.14,-120"/>
</g>
<!-- [root] provider[&quot;registry.terraform.io/hashicorp/aws&quot;] -->
<g id="node4" class="node">
<title>[root] provider[&quot;registry.terraform.io/hashicorp/aws&quot;]</title>
<polygon fill="none" stroke="black" points="262.75,-36 0,-18 262.75,0 525.5,-18 262.75,-36"/>
<text text-anchor="middle" x="262.75" y="-12.58" font-family="Times New Roman,serif" font-size="14.00">provider[&quot;registry.terraform.io/hashicorp/aws&quot;]</text>
</g>
<!-- [root] data.aws_ami.amzn&#45;linux&#45;2023&#45;ami (expand)&#45;&gt;[root] provider[&quot;registry.terraform.io/hashicorp/aws&quot;] -->
<g id="edge5" class="edge">
<title>[root] data.aws_ami.amzn&#45;linux&#45;2023&#45;ami (expand)&#45;&gt;[root] provider[&quot;registry.terraform.io/hashicorp/aws&quot;]</title>
<path fill="none" stroke="black" d="M262.75,-71.7C262.75,-64.41 262.75,-55.73 262.75,-47.54"/>
<polygon fill="black" stroke="black" points="266.25,-47.62 262.75,-37.62 259.25,-47.62 266.25,-47.62"/>
</g>
<!-- [root] provider[&quot;registry.terraform.io/hashicorp/aws&quot;] (close) -->
<g id="node6" class="node">
<title>[root] provider[&quot;registry.terraform.io/hashicorp/aws&quot;] (close)</title>
<ellipse fill="none" stroke="black" cx="340.75" cy="-234" rx="237.69" ry="18"/>
<text text-anchor="middle" x="340.75" y="-228.57" font-family="Times New Roman,serif" font-size="14.00">[root] provider[&quot;registry.terraform.io/hashicorp/aws&quot;] (close)</text>
</g>
<!-- [root] provider[&quot;registry.terraform.io/hashicorp/aws&quot;] (close)&#45;&gt;[root] aws_instance.dev (expand) -->
<g id="edge6" class="edge">
<title>[root] provider[&quot;registry.terraform.io/hashicorp/aws&quot;] (close)&#45;&gt;[root] aws_instance.dev (expand)</title>
<path fill="none" stroke="black" d="M323.94,-215.7C315.87,-207.39 306.05,-197.28 297.17,-188.14"/>
<polygon fill="black" stroke="black" points="299.9,-185.92 290.42,-181.19 294.88,-190.8 299.9,-185.92"/>
</g>
<!-- [root] provider[&quot;registry.terraform.io/hashicorp/aws&quot;] (close)&#45;&gt;[root] aws_instance.prod (expand) -->
<g id="edge7" class="edge">
<title>[root] provider[&quot;registry.terraform.io/hashicorp/aws&quot;] (close)&#45;&gt;[root] aws_instance.prod (expand)</title>
<path fill="none" stroke="black" d="M357.56,-215.7C365.63,-207.39 375.45,-197.28 384.33,-188.14"/>
<polygon fill="black" stroke="black" points="386.62,-190.8 391.08,-181.19 381.6,-185.92 386.62,-190.8"/>
</g>
<!-- [root] root -->
<g id="node7" class="node">
<title>[root] root</title>
<ellipse fill="none" stroke="black" cx="340.75" cy="-306" rx="50.07" ry="18"/>
<text text-anchor="middle" x="340.75" y="-300.57" font-family="Times New Roman,serif" font-size="14.00">[root] root</text>
</g>
<!-- [root] root&#45;&gt;[root] provider[&quot;registry.terraform.io/hashicorp/aws&quot;] (close) -->
<g id="edge8" class="edge">
<title>[root] root&#45;&gt;[root] provider[&quot;registry.terraform.io/hashicorp/aws&quot;] (close)</title>
<path fill="none" stroke="black" d="M340.75,-287.7C340.75,-280.41 340.75,-271.73 340.75,-263.54"/>
<polygon fill="black" stroke="black" points="344.25,-263.62 340.75,-253.62 337.25,-263.62 344.25,-263.62"/>
</g>
</g>
</svg>
